# Aspose.3D Wavefront OBJ Exporter
# Copyright 2004-2021 Aspose Pty Ltd.
# File created: 05/21/2021 13:36:57


#
# object map_ob000_item_19_memory
#

v 0.18965640000000004 0.7712551 0.30051120000000004
v 0.18965630000000004 0.8086721 0.2630941
v 0.30287480000000012 0.7286145 0.18303660000000004
v 0.30287480000000012 0.69119750000000016 0.22045360000000004
v -0.29718330000000004 0.24506660000000004 -0.30051120000000004
v -0.29718330000000004 0.51566140000000008 -0.02991658
v -0.29718330000000004 0.4782443 0.007500434
v -0.29718340000000004 0.2076496 -0.2630941
v -0.29718340000000004 0.7712551 0.30051110000000004
v -0.29718340000000004 0.8086722 0.2630941
v 0.18965630000000004 0.8086721 0.2630941
v 0.18965640000000004 0.7712551 0.30051120000000004
v 0.30287490000000012 0.63254540000000016 0.08696754000000002
v 0.27402970000000004 0.63254540000000016 0.08696754000000002
v 0.27402980000000004 0.59512840000000008 0.1243845
v 0.30287480000000012 0.59512840000000008 0.12438460000000002
v -0.29718330000000004 0.24506660000000004 -0.30051120000000004
v -0.29718340000000004 0.2076496 -0.2630941
v 0.30287470000000012 0.2076496 -0.2630941
v 0.30287480000000012 0.24506660000000004 -0.30051110000000004
v 0.27402970000000004 0.63254540000000016 0.08696754000000002
v 0.27402980000000004 0.5941177 0.04853980000000001
v 0.27402980000000004 0.55670070000000008 0.08595686000000001
v 0.27402980000000004 0.59512840000000008 0.1243845
v 0.27402980000000004 0.5941177 0.04853980000000001
v 0.30287480000000012 0.5941178 0.04853988000000001
v 0.30287480000000012 0.55670070000000008 0.08595688000000001
v 0.27402980000000004 0.55670070000000008 0.08595686000000001
v -0.29718330000000004 0.51566140000000008 -0.02991658
v -0.2518959 0.51566140000000008 -0.0299166
v -0.251896 0.4782443 0.007500453
v -0.29718330000000004 0.4782443 0.007500434
v 0.18965640000000004 0.7712551 0.30051120000000004
v 0.30287480000000012 0.69119750000000016 0.22045360000000004
v 0.30287480000000012 0.59512840000000008 0.12438460000000002
v 0.27402980000000004 0.59512840000000008 0.1243845
v -0.251896 0.54086140000000008 0.07011737
v -0.251896 0.4782443 0.007500453
v 0.27402980000000004 0.55670070000000008 0.08595686000000001
v -0.29718340000000004 0.7712551 0.30051110000000004
v -0.29718350000000004 0.55582820000000008 0.08508434000000002
v 0.30287470000000012 0.2076496 -0.2630941
v 0.30287480000000012 0.55670070000000008 0.08595688000000001
v -0.29718340000000004 0.2076496 -0.2630941
v -0.29718330000000004 0.4782443 0.007500434
v 0.30287480000000012 0.24506660000000004 -0.30051110000000004
v 0.30287470000000012 0.2076496 -0.2630941
v 0.30287480000000012 0.55670070000000008 0.08595688000000001
v 0.30287480000000012 0.5941178 0.04853988000000001
v -0.29718330000000004 0.59324520000000016 0.04766728000000001
v -0.29718350000000004 0.55582820000000008 0.08508434000000002
v -0.251896 0.54086140000000008 0.07011737
v -0.251896 0.57827840000000008 0.03270038000000001
v -0.29718340000000004 0.8086722 0.2630941
v -0.29718340000000004 0.7712551 0.30051110000000004
v -0.29718350000000004 0.55582820000000008 0.08508434000000002
v -0.29718330000000004 0.59324520000000016 0.04766728000000001
v -0.2518959 0.51566140000000008 -0.0299166
v -0.251896 0.57827840000000008 0.03270038000000001
v -0.251896 0.54086140000000008 0.07011737
v -0.251896 0.4782443 0.007500453
v 0.30287480000000012 0.7286145 0.18303660000000004
v 0.30287490000000012 0.63254540000000016 0.08696754000000002
v 0.30287480000000012 0.59512840000000008 0.12438460000000002
v 0.30287480000000012 0.69119750000000016 0.22045360000000004
v 0.18965630000000004 0.8086721 0.2630941
v 0.27402970000000004 0.63254540000000016 0.08696754000000002
v 0.30287490000000012 0.63254540000000016 0.08696754000000002
v 0.30287480000000012 0.7286145 0.18303660000000004
v -0.251896 0.57827840000000008 0.03270038000000001
v -0.2518959 0.51566140000000008 -0.0299166
v 0.27402980000000004 0.5941177 0.04853980000000001
v -0.29718340000000004 0.8086722 0.2630941
v -0.29718330000000004 0.59324520000000016 0.04766728000000001
v 0.30287480000000012 0.24506660000000004 -0.30051110000000004
v 0.30287480000000012 0.5941178 0.04853988000000001
v -0.29718330000000004 0.24506660000000004 -0.30051120000000004
v -0.29718330000000004 0.51566140000000008 -0.02991658
# 78 vertices

vn 0.7071065 0.500001 0.4999994
vn 0.7071065 0.500001 0.4999994
vn 0.7071065 0.500001 0.4999993
vn 0.7071065 0.500001 0.4999994
vn -1 1.2056499999999998E-06 -5.138399E-07
vn -1 1.2056499999999998E-06 -5.1384E-07
vn -1 1.2056499999999998E-06 -5.138399E-07
vn -1 1.2056499999999998E-06 -5.138399E-07
vn 0 0.7071068 0.7071068
vn 0 0.7071066 0.7071068
vn 0 0.7071068 0.7071068
vn 0 0.7071066 0.7071068
vn 4.998434E-07 -0.70710590000000008 -0.7071075
vn 4.998435E-07 -0.70710609999999992 -0.7071075
vn 4.998434E-07 -0.70710609999999992 -0.7071075
vn 4.998435E-07 -0.70710609999999992 -0.7071075
vn 0 -0.7071066 -0.7071069
vn 0 -0.7071068 -0.7071068
vn 0 -0.7071066 -0.7071068
vn 0 -0.7071066 -0.7071068
vn 1 1.061223E-06 2.3811970000000001E-07
vn 1 1.061223E-06 2.3811970000000001E-07
vn 1 1.061223E-06 2.3811970000000001E-07
vn 1 1.061223E-06 2.3811970000000001E-07
vn -1.411067E-06 0.7071066 0.7071068
vn -1.4110659999999998E-06 0.7071068 0.7071068
vn -1.411067E-06 0.7071068 0.7071068
vn -1.411067E-06 0.7071068 0.7071068
vn 0 0.7071071 0.7071064
vn 0 0.7071071 0.7071064
vn 0 0.70710720000000008 0.7071064
vn 0 0.7071071 0.7071065
vn -1.352319E-07 -0.7071066 0.7071068
vn -1.352319E-07 -0.7071066 0.7071068
vn -1.352319E-07 -0.7071066 0.7071068
vn -1.352319E-07 -0.7071066 0.7071068
vn 2.101265E-06 -0.7071065 0.7071071
vn -2.284126E-07 -0.7071064 0.70710720000000008
vn -2.284126E-07 -0.7071064 0.70710720000000008
vn 2.101265E-06 -0.7071065 0.7071071
vn 2.101265E-06 -0.7071065 0.7071071
vn -4.286531E-07 -0.70710609999999992 0.70710740000000008
vn -4.286531E-07 -0.70710609999999992 0.70710740000000008
vn -3.521835E-07 -0.7071068 0.7071068
vn -3.521834E-07 -0.7071068 0.7071068
vn 1 -1.7232720000000002E-06 7.646313E-07
vn 1 -1.7232720000000002E-06 7.646312E-07
vn 1 -1.7232720000000002E-06 7.646312E-07
vn 1 -1.7232720000000002E-06 7.646312E-07
vn -0.42341540000000008 -0.6405925 -0.64059420000000008
vn -0.42341540000000008 -0.6405925 -0.64059420000000008
vn -0.42341540000000008 -0.6405925 -0.64059420000000008
vn -0.42341540000000008 -0.6405925 -0.64059420000000008
vn -1 1.183126E-06 -6.760939000000001E-07
vn -1 1.183126E-06 -6.760939000000001E-07
vn -1 1.183126E-06 -6.760939000000001E-07
vn -1 1.183126E-06 -6.760939000000001E-07
vn -1 0 -6.620574E-07
vn -1 0 -6.620574E-07
vn -1 0 -6.620574E-07
vn -1 0 -6.620574E-07
vn 1 0 4.534169E-07
vn 1 0 4.534169E-07
vn 1 0 4.534169E-07
vn 1 0 4.534169E-07
vn 8.113898E-07 0.7071062 -0.7071073
vn 8.113899E-07 0.7071062 -0.7071073
vn 8.113898E-07 0.7071062 -0.7071073
vn 8.113899E-07 0.7071062 -0.7071073
vn -4.423723E-07 0.7071066 -0.7071069
vn 0 0.70710700000000008 -0.7071065
vn 0 0.7071069 -0.7071066
vn -4.423724E-07 0.7071066 -0.7071069
vn -4.423724E-07 0.7071066 -0.7071069
vn 8.573043999999999E-07 0.7071073 -0.7071062
vn 8.573043999999999E-07 0.7071073 -0.7071062
vn 0 0.7071065 -0.70710700000000008
vn 0 0.7071065 -0.70710700000000008
# 78 vertex normals

vt 0.858585 0.92784490000000016 0
vt 0.8710849 0.92784510000000016 0
vt 0.8710849 0.9680369 0
vt 0.858585 0.9680368 0
vt 0.8710849 0.7566669 0
vt 0.8710849 0.8696643 0
vt 0.8585849 0.86966420000000016 0
vt 0.8585848 0.7566669 0
vt 0.8585849 0.7840909 0
vt 0.87108480000000016 0.78409100000000016 0
vt 0.8710849 0.92784510000000016 0
vt 0.858585 0.92784490000000016 0
vt 0.87108480000000016 0.8205156 0
vt 0.87108480000000016 0.8251151 0
vt 0.8585848 0.825115 0
vt 0.8585849 0.8205158 0
vt 0.8710849 0.9594977 0
vt 0.8585848 0.9594978 0
vt 0.8585849 0.78231249999999984 0
vt 0.8710849 0.78231239999999984 0
vt 0.87108480000000016 0.8251151 0
vt 0.8710847 0.8411616 0
vt 0.8585848 0.8411617 0
vt 0.8585848 0.825115 0
vt 0.8710847 0.8411616 0
vt 0.87108480000000016 0.8411617 0
vt 0.8585848 0.8411617 0
vt 0.8585848 0.8411617 0
vt 0.8710849 0.8696643 0
vt 0.8710849 0.88273840000000016 0
vt 0.8585848 0.88273830000000016 0
vt 0.8585849 0.86966420000000016 0
vt 0.7844746 0.75477190000000016 0
vt 0.76775900000000016 0.7882031 0
vt 0.76775900000000016 0.8283205 0
vt 0.77201769999999984 0.8283205 0
vt 0.84966540000000016 0.85098180000000016 0
vt 0.8496653 0.87713 0
vt 0.77201769999999984 0.8443675 0
vt 0.8563517 0.75477190000000016 0
vt 0.8563517 0.84473190000000016 0
vt 0.76775900000000016 0.9901275 0
vt 0.76775900000000016 0.8443675 0
vt 0.8563517 0.9901275 0
vt 0.85635160000000016 0.87713 0
vt 0.8710849 0.9869219 0
vt 0.8585848 0.986922 0
vt 0.8585848 0.8411617 0
vt 0.87108480000000016 0.8411617 0
vt 0.8710849 0.9071431 0
vt 0.8585848 0.9071432 0
vt 0.8585848 0.8958125 0
vt 0.8710849 0.8958124 0
vt 0.8710849 0.99202249999999984 0
vt 0.8585848 0.9920226 0
vt 0.8585848 0.9071432 0
vt 0.8710849 0.9071431 0
vt 0.8710849 0.88273840000000016 0
vt 0.8710849 0.8958124 0
vt 0.8585848 0.8958125 0
vt 0.8585848 0.88273830000000016 0
vt 0.8710847 0.7855349 0
vt 0.87108480000000016 0.8205156 0
vt 0.8585849 0.8205158 0
vt 0.8585849 0.7855349 0
vt 0.7844746 0.75477190000000016 0
vt 0.77201769999999984 0.8283205 0
vt 0.76775900000000016 0.8283205 0
vt 0.76775900000000016 0.7882031 0
vt 0.84966540000000016 0.85098180000000016 0
vt 0.8496653 0.87713 0
vt 0.77201769999999984 0.8443675 0
vt 0.8563517 0.75477190000000016 0
vt 0.8563517 0.84473190000000016 0
vt 0.76775900000000016 0.9901275 0
vt 0.76775900000000016 0.8443675 0
vt 0.8563517 0.9901275 0
vt 0.85635160000000016 0.87713 0
# 78 texture coords

g map_ob000_item_19_memory
usemtl mat_map_ob000_item
s 1
f 1/1/1 3/3/3 2/2/2
f 1/1/1 4/4/4 3/3/3
f 5/5/5 7/7/7 6/6/6
f 5/5/5 8/8/8 7/7/7
f 9/9/9 11/11/11 10/10/10
f 9/9/9 12/12/12 11/11/11
f 13/13/13 15/15/15 14/14/14
f 13/13/13 16/16/16 15/15/15
f 17/17/17 19/19/19 18/18/18
f 17/17/17 20/20/20 19/19/19
f 21/21/21 23/23/23 22/22/22
f 21/21/21 24/24/24 23/23/23
f 25/25/25 27/27/27 26/26/26
f 25/25/25 28/28/28 27/27/27
f 29/29/29 31/31/31 30/30/30
f 29/29/29 32/32/32 31/31/31
f 33/33/33 35/35/35 34/34/34
f 33/33/33 36/36/36 35/35/35
f 37/37/37 36/36/36 33/33/33
f 38/38/38 36/36/36 37/37/37
f 38/38/38 39/39/39 36/36/36
f 37/37/37 33/33/33 40/40/40
f 37/37/37 40/40/40 41/41/41
f 42/42/42 39/39/39 38/38/38
f 42/42/42 43/43/43 39/39/39
f 42/42/42 38/38/38 44/44/44
f 44/44/44 38/38/38 45/45/45
f 46/46/46 48/48/48 47/47/47
f 46/46/46 49/49/49 48/48/48
f 50/50/50 52/52/52 51/51/51
f 50/50/50 53/53/53 52/52/52
f 54/54/54 56/56/56 55/55/55
f 54/54/54 57/57/57 56/56/56
f 58/58/58 60/60/60 59/59/59
f 58/58/58 61/61/61 60/60/60
f 62/62/62 64/64/64 63/63/63
f 62/62/62 65/65/65 64/64/64
f 66/66/66 68/68/68 67/67/67
f 66/66/66 69/69/69 68/68/68
f 70/70/70 66/66/66 67/67/67
f 71/71/71 70/70/70 67/67/67
f 71/71/71 67/67/67 72/72/72
f 70/70/70 73/73/73 66/66/66
f 70/70/70 74/74/74 73/73/73
f 75/75/75 71/71/71 72/72/72
f 75/75/75 72/72/72 76/76/76
f 75/75/75 77/77/77 71/71/71
f 77/77/77 78/78/78 71/71/71
#48 polygons

