# Aspose.3D Wavefront OBJ Exporter
# Copyright 2004-2021 Aspose Pty Ltd.
# File created: 05/21/2021 13:37:26


#
# object map_ob000_item_21_goalkey
#

v 0.28030260000000008 0.86542080000000016 0
v 0.30970930000000004 0.89482720000000016 0.04158724
v 0.35437190000000008 0.7870035 0.04158714000000001
v 0.31278460000000008 0.7870034 3.814697E-08
v 0.20188540000000004 0.89790220000000016 5.722046E-08
v 0.2018853 0.9394892 0.04158727
v 0.1234685 0.86542060000000016 3.814697E-08
v 0.09406143000000002 0.89482720000000016 0.04158724
v 0.09098678000000004 0.7870033 3.814697E-08
v 0.04939926000000001 0.7870033 0.0415872
v 0.1234685 0.70858599999999992 3.814697E-08
v 0.09406143000000002 0.67917950000000016 0.04158724
v 0.20188540000000004 0.67610450000000008 9.536743E-08
v 0.20188540000000004 0.6345174 0.04158724
v 0.28030280000000008 0.70858599999999992 5.722046E-08
v 0.30970930000000004 0.67917950000000016 0.04158724
v 0.39595870000000008 0.7870035 7.629394E-08
v 0.33911600000000008 0.9242339 9.536743E-08
v 0.2018855 0.9810764 5.722046E-08
v 0.06465500000000002 0.9242337 1.335144E-07
v 0.007812195 0.7870033 0
v 0.06465500000000002 0.64977290000000008 1.335144E-07
v 0.20188540000000004 0.59293040000000008 1.907349E-08
v 0.33911610000000008 0.64977300000000016 3.814697E-08
v 0.33911600000000008 0.9242339 9.536743E-08
v 0.30970930000000004 0.89482720000000016 -0.04158716000000001
v 0.35437190000000008 0.7870035 -0.04158710000000001
v 0.39595870000000008 0.7870035 7.629394E-08
v 0.2018855 0.9810764 5.722046E-08
v 0.2018853 0.9394892 -0.04158716000000001
v 0.06465500000000002 0.9242337 1.335144E-07
v 0.09406166000000004 0.89482720000000016 -0.04158710000000001
v 0.007812195 0.7870033 0
v 0.04939941000000001 0.7870033 -0.04158714000000001
v 0.06465500000000002 0.64977290000000008 1.335144E-07
v 0.09406166000000004 0.67917950000000016 -0.04158710000000001
v 0.20188540000000004 0.59293040000000008 1.907349E-08
v 0.2018855 0.6345174 -0.04158712000000001
v 0.33911610000000008 0.64977300000000016 3.814697E-08
v 0.30970930000000004 0.67917950000000016 -0.04158722000000001
v 0.31278460000000008 0.7870034 3.814697E-08
v 0.28030260000000008 0.86542080000000016 0
v 0.20188540000000004 0.89790220000000016 5.722046E-08
v 0.1234685 0.86542060000000016 3.814697E-08
v 0.09098678000000004 0.7870033 3.814697E-08
v 0.1234685 0.70858599999999992 3.814697E-08
v 0.20188540000000004 0.67610450000000008 9.536743E-08
v 0.28030280000000008 0.70858599999999992 5.722046E-08
v -0.09996544000000004 0.4851522 -0.04959863000000001
v 0.05619110000000001 0.64130890000000008 -0.04959869000000001
v 0.02111969 0.67638050000000008 -1.1444090000000001E-07
v -0.13503730000000002 0.5202239 1.1444090000000001E-07
v 0.05619087000000001 0.64130890000000008 0.04959862000000002
v -0.09996567000000004 0.4851522 0.04959862000000002
v -0.12592630000000002 0.4591918 -0.08588598000000001
v -0.1866565 0.5199226 -1.5258790000000002E-07
v -0.12592640000000002 0.4591918 0.08588602000000002
v -0.1491026 0.43601500000000008 -0.04959865000000001
v -0.1841743 0.47108670000000008 -1.335144E-07
v -0.1491026 0.43601500000000008 0.04959871000000001
v 0.01974487 0.72264460000000016 -1.907349E-08
v 0.07863571000000003 0.66375360000000016 -0.08328422000000003
v 0.11154110000000002 0.7668021 -1.5258790000000002E-07
v 0.17200400000000002 0.75712180000000016 -0.04959862000000002
v 0.17200390000000002 0.75712180000000016 0.04959873000000001
v 0.07863586000000002 0.66375360000000016 0.08328449000000002
v 0.17200400000000002 0.75712180000000016 -0.04959862000000002
v 0.181684 0.69665890000000016 1.907349E-08
v 0.17200390000000002 0.75712180000000016 0.04959873000000001
v 0.07863586000000002 0.66375360000000016 0.08328449000000002
v 0.1375268 0.6048628 2.479553E-07
v 0.07863571000000003 0.66375360000000016 -0.08328422000000003
v 0.09126274000000006 0.6062373 1.335144E-07
v 0.05619110000000001 0.64130890000000008 -0.04959869000000001
v -0.06489372000000003 0.45008060000000008 5.722046E-08
v -0.09996544000000004 0.4851522 -0.04959863000000001
v -0.09996567000000004 0.4851522 0.04959862000000002
v 0.05619087000000001 0.64130890000000008 0.04959862000000002
v -0.12592640000000002 0.4591918 0.08588602000000002
v -0.06519546000000002 0.39846120000000008 1.716614E-07
v -0.12592630000000002 0.4591918 -0.08588598000000001
v -0.1491026 0.43601500000000008 0.04959871000000001
v -0.11403140000000002 0.4009435 0
v -0.1491026 0.43601500000000008 -0.04959865000000001
v -0.11403140000000002 0.4009435 0
v -0.1491026 0.43601500000000008 -0.04959865000000001
v -0.1841743 0.47108670000000008 -1.335144E-07
v -0.1491026 0.43601500000000008 0.04959871000000001
v -0.3606974 0.22442070000000004 -0.0311368
v -0.1491026 0.43601500000000008 -0.03113687
v -0.17111990000000002 0.4580322 1.335144E-07
v -0.36578690000000008 0.26336540000000004 1.335144E-07
v -0.1491026 0.43601500000000008 0.03113691
v -0.3606973 0.22442070000000004 0.03113686
v -0.1270855 0.4139979 1.907349E-08
v -0.32175230000000004 0.21933110000000004 3.814697E-08
v -0.3606973 0.22442070000000004 0.03113686
v -0.1491026 0.43601500000000008 0.03113691
v -0.3606974 0.22442070000000004 -0.0311368
v -0.1491026 0.43601500000000008 -0.03113687
v -0.16816490000000004 0.41576880000000008 -0.01181046
v -0.08471084000000002 0.33231520000000008 -0.0118104
v -0.08471092000000002 0.33231520000000008 0.01181059
v -0.16816510000000004 0.41576890000000008 0.01181049
v -0.33250410000000008 0.25142970000000004 0.01181057
v -0.2490505 0.16797600000000004 0.01181049
v -0.08471084000000002 0.33231520000000008 -0.0118104
v -0.2490507 0.16797590000000004 -0.01181053
v -0.2490507 0.16797590000000004 -0.01181053
v -0.33250430000000008 0.25142960000000004 -0.01181042
v -0.16816490000000004 0.41576880000000008 -0.01181046
v -0.33250430000000008 0.25142960000000004 -0.01181042
# 112 vertices

vn -0.49999870000000008 -0.5000017 0.7071064
vn 0.20540820000000004 0.20540970000000004 0.95687740000000016
vn 0.29049430000000004 -2.530939E-07 0.9568767
vn -0.70710550000000008 -3.114877E-07 0.70710800000000008
vn 0 -0.7071073 0.7071062
vn -3.163681E-07 0.29049390000000004 0.95687680000000016
vn 0.49999800000000008 -0.49999970000000008 0.70710840000000008
vn -0.20540950000000004 0.20541060000000004 0.9568769
vn 0.7071033 -2.076577E-07 0.7071102
vn -0.2904932 0 0.9568771
vn 0.4999975 0.49999980000000008 0.70710860000000008
vn -0.20540920000000004 -0.20541040000000004 0.9568771
vn 0 0.7071065 0.70710700000000008
vn 4.808793999999999E-07 -0.29049450000000004 0.9568767
vn -0.499999 0.5000011 0.7071066
vn 0.20540920000000004 -0.20541040000000004 0.9568771
vn 0.7071065 -1.428744E-07 0.70710700000000008
vn 0.4999994 0.5 0.70710720000000008
vn 7.756038000000001E-07 0.70710740000000008 0.70710609999999992
vn -0.5000007 0.500001 0.70710560000000008
vn -0.70710740000000008 1.326694E-07 0.70710609999999992
vn -0.49999980000000008 -0.5000009 0.7071062
vn 2.1431149999999998E-07 -0.70710780000000008 0.70710570000000008
vn 0.50000029999999992 -0.50000029999999992 0.7071062
vn 0.49999990000000008 0.5000007 -0.7071064
vn 0.20540920000000004 0.20541060000000004 -0.9568771
vn 0.2904951 0 -0.9568765
vn 0.7071077 1.326689E-07 -0.70710590000000008
vn 4.184171E-07 0.70710720000000008 -0.7071064
vn -8.225564E-07 0.29049480000000004 -0.9568766
vn -0.5000006 0.5000004 -0.70710609999999992
vn -0.20540970000000004 0.20541140000000004 -0.9568767
vn -0.7071062 0 -0.7071073
vn -0.2904935 0 -0.9568769
vn -0.5 -0.50000029999999992 -0.7071065
vn -0.20540940000000004 -0.20541090000000004 -0.9568769
vn -7.245769E-07 -0.70710780000000008 -0.70710570000000008
vn -1.5185659999999999E-07 -0.29049450000000004 -0.9568767
vn 0.5000011 -0.5000004 -0.70710560000000008
vn 0.20540910000000004 -0.20541020000000004 -0.95687720000000016
vn -0.70710609999999992 0 -0.7071075
vn -0.49999880000000008 -0.50000180000000008 -0.7071064
vn -2.737331E-07 -0.7071077 -0.70710590000000008
vn 0.49999950000000008 -0.49999990000000008 -0.7071071
vn 0.7071049 -2.8317040000000004E-07 -0.70710860000000008
vn 0.49999850000000008 0.5 -0.7071077
vn -3.30367E-07 0.7071069 -0.7071066
vn -0.5 0.5000013 -0.70710580000000008
vn -0.38032360000000008 0.60677230000000008 -0.69798370000000008
vn -0.60197010000000008 0.38633610000000008 -0.69883940000000024
vn -0.8415887 0.540119 -2.219874E-06
vn -0.5310928 0.8473136 -2.40618E-07
vn -0.60197110000000008 0.38633660000000008 0.69883810000000016
vn -0.38032410000000008 0.60677300000000008 0.69798300000000016
vn -0.49185090000000008 0.50808259999999992 -0.7070606
vn -0.6955371 0.7184901 -2.758489E-06
vn -0.49185610000000008 0.5080793 0.70705930000000008
vn -0.8295847 -0.04216996000000001 -0.5567862
vn -0.9987105 -0.05076714000000001 -1.6813980000000003E-06
vn -0.82958689999999984 -0.04217020000000001 0.5567831
vn -0.66817460000000016 0.7440045 7.651902E-07
vn -0.4837556 0.54771580000000008 -0.68263300000000016
vn -0.43078630000000008 0.902454 -1.238526E-06
vn -0.29693760000000004 0.75015900000000016 -0.59083800000000008
vn -0.29693870000000004 0.75015980000000016 0.5908365
vn -0.4837561 0.547718 0.68263090000000016
vn 0.75015960000000016 -0.2969394 -0.5908364
vn 0.902454 -0.43078640000000008 -1.094902E-06
vn 0.7501603 -0.29693780000000004 0.5908363
vn 0.5477172 -0.483756 0.68263170000000016
vn 0.74400420000000016 -0.66817490000000016 9.077260000000001E-07
vn 0.5477173 -0.4837562 -0.68263150000000016
vn 0.5401197 -0.8415882 1.023896E-06
vn 0.38633720000000008 -0.60196980000000008 -0.69883890000000016
vn 0.8473122 -0.53109530000000008 1.6760270000000002E-06
vn 0.60677180000000016 -0.38032470000000016 -0.69798360000000016
vn 0.60677040000000016 -0.38032210000000008 0.69798620000000008
vn 0.38633480000000008 -0.60196880000000008 0.69884120000000024
vn 0.50808259999999992 -0.49184860000000008 0.7070622
vn 0.71849170000000008 -0.69553540000000016 1.7802950000000002E-06
vn 0.50808249999999992 -0.49185110000000008 -0.7070606
vn -0.04216788000000001 -0.82958349999999984 0.5567881
vn -0.05076325000000001 -0.9987106 -2.088206E-06
vn -0.04216556000000001 -0.8295832 -0.5567889
vn -0.7071085 -0.70710500000000008 9.304047E-07
vn -0.70710860000000008 -0.70710500000000008 9.304047E-07
vn -0.70710840000000008 -0.70710500000000008 9.304046E-07
vn -0.7071085 -0.70710500000000008 9.304046E-07
vn -0.55944649999999992 0.4717659 -0.68151040000000008
vn -0.4999992 0.49999990000000008 -0.70710740000000008
vn -0.7071064 0.70710720000000008 5.430053E-07
vn -0.73085990000000016 0.68252750000000008 6.121475E-07
vn -0.4999974 0.49999790000000008 0.70711
vn -0.55944500000000008 0.4717638 0.6815131
vn 0.7071062 -0.70710720000000008 -7.059078E-07
vn 0.68252640000000008 -0.7308609 -7.623330000000001E-07
vn 0.4717641 -0.5594477 0.6815107
vn 0.49999870000000008 -0.4999992 0.70710820000000008
vn 0.4717638 -0.5594473 -0.68151120000000008
vn 0.49999830000000008 -0.4999991 -0.7071085
vn 0.7071047 0.70710890000000008 2.189378E-06
vn 0.70710460000000008 0.70710890000000008 2.189378E-06
vn 0.20820740000000004 -0.06796384000000003 0.9757205
vn 0.07149743 0.07149797000000001 0.9948749
vn -0.07149839 -0.07149813000000001 0.9948749
vn 0.06796433000000002 -0.20820770000000004 0.9757204
vn 0.13876970000000002 -0.13876980000000002 -0.98055389999999984
vn 0.13876860000000002 -0.13876870000000002 -0.9805542
vn -0.7071075 -0.70710609999999992 8.210177E-06
vn -0.7071075 -0.70710609999999992 8.210176E-06
vn 0 3.1649090000000003E-07 -1
vn 0 3.1649090000000003E-07 -1
# 112 vertex normals

vt 0.66792370000000016 0.51864080000000016 0
vt 0.66792370000000016 0.5042477 0
vt 0.68761850000000016 0.52056339999999992 0
vt 0.68252970000000016 0.53074080000000016 0
vt 0.65331760000000008 0.53074080000000016 0
vt 0.64822890000000008 0.52056339999999992 0
vt 0.6472675 0.5599529 0
vt 0.64007100000000016 0.5599529 0
vt 0.65331760000000008 0.5891651 0
vt 0.64822890000000008 0.59934260000000008 0
vt 0.66792370000000016 0.60126520000000008 0
vt 0.66792370000000016 0.61565820000000016 0
vt 0.68252970000000016 0.5891651 0
vt 0.68761850000000016 0.59934260000000008 0
vt 0.68857980000000016 0.5599529 0
vt 0.69577650000000016 0.5599529 0
vt 0.69274270000000016 0.5103154 0
vt 0.66792370000000016 0.48975480000000008 0
vt 0.64310480000000016 0.5103154 0
vt 0.63282460000000016 0.5599529 0
vt 0.64310480000000016 0.60959060000000008 0
vt 0.66792370000000016 0.63015140000000016 0
vt 0.69274270000000016 0.60959060000000008 0
vt 0.7030227 0.5599529 0
vt 0.66817680000000016 0.34308490000000012 0
vt 0.66817680000000016 0.35700570000000004 0
vt 0.64863690000000008 0.373193 0
vt 0.64371520000000016 0.36334930000000008 0
vt 0.69263830000000016 0.36334930000000008 0
vt 0.68771660000000016 0.373193 0
vt 0.70277070000000008 0.41227250000000008 0
vt 0.69581020000000016 0.41227250000000008 0
vt 0.69263830000000016 0.4611955 0
vt 0.68771660000000016 0.451352 0
vt 0.66817680000000016 0.48146020000000008 0
vt 0.66817680000000016 0.4675392 0
vt 0.64371520000000016 0.4611955 0
vt 0.64863690000000008 0.451352 0
vt 0.63358289999999992 0.41227250000000008 0
vt 0.64054350000000008 0.41227250000000008 0
vt 0.65363880000000016 0.38319690000000008 0
vt 0.66817680000000016 0.3711534 0
vt 0.68271460000000016 0.38319690000000008 0
vt 0.68873640000000016 0.41227250000000008 0
vt 0.68271460000000016 0.44134810000000008 0
vt 0.66817680000000016 0.4533916 0
vt 0.65363880000000016 0.44134810000000008 0
vt 0.64761720000000008 0.41227250000000008 0
vt 0.6363124 0.80764720000000016 0
vt 0.63636060000000008 0.70713460000000008 0
vt 0.6475077 0.70684220000000008 0
vt 0.64750540000000008 0.8083571 0
vt 0.65866480000000016 0.7071351 0
vt 0.65870850000000016 0.80764820000000016 0
vt 0.62805380000000008 0.8252337 0
vt 0.64750520000000008 0.8252337 0
vt 0.66696660000000008 0.8252337 0
vt 0.63631100000000008 0.83927500000000016 0
vt 0.64750980000000016 0.8392767 0
vt 0.65870880000000024 0.839276 0
vt 0.6475077 0.69220690000000008 0
vt 0.62886190000000008 0.69220690000000008 0
vt 0.6475077 0.64899870000000016 0
vt 0.63640550000000008 0.63377920000000024 0
vt 0.65861980000000016 0.63377920000000024 0
vt 0.6661633 0.69220690000000008 0
vt 0.69900670000000008 0.633503 0
vt 0.68790040000000016 0.64872160000000024 0
vt 0.67679260000000016 0.63350180000000008 0
vt 0.66924820000000016 0.69220690000000008 0
vt 0.68789990000000024 0.69220690000000008 0
vt 0.70654950000000008 0.69220690000000008 0
vt 0.68789960000000024 0.70656509999999992 0
vt 0.69909580000000024 0.70685820000000008 0
vt 0.68789960000000024 0.80807960000000016 0
vt 0.69918600000000008 0.807371 0
vt 0.67661150000000016 0.807371 0
vt 0.67670150000000016 0.70685760000000008 0
vt 0.66815670000000008 0.8252337 0
vt 0.68789960000000024 0.8252337 0
vt 0.70744400000000008 0.8252337 0
vt 0.67661150000000016 0.83899920000000016 0
vt 0.68789960000000024 0.83899920000000016 0
vt 0.69918600000000008 0.83899920000000016 0
vt 0.65710120000000016 0.41242610000000008 0
vt 0.66849520000000016 0.38963830000000008 0
vt 0.67988910000000016 0.41242600000000008 0
vt 0.66849520000000016 0.4352138 0
vt 0.6313345 0.9884982 0
vt 0.6313345 0.8521593 0
vt 0.63842780000000008 0.8521593 0
vt 0.63842780000000008 0.9775912 0
vt 0.64552120000000016 0.8521593 0
vt 0.64552120000000016 0.9884982 0
vt 0.65860760000000016 0.85193060000000016 0
vt 0.65860760000000016 0.9777832 0
vt 0.65149060000000016 0.9887269 0
vt 0.65149060000000016 0.85193060000000016 0
vt 0.66572460000000024 0.9887269 0
vt 0.66572460000000024 0.85193060000000016 0
vt 0.67312210000000008 0.85647080000000016 0
vt 0.7005934 0.85647060000000016 0
vt 0.7005934 0.8674669 0
vt 0.67312210000000008 0.8674669 0
vt 0.67312210000000008 0.9756612 0
vt 0.7005934 0.9756613 0
vt 0.70609140000000016 0.8674669 0
vt 0.70609140000000016 0.9756612 0
vt 0.7005934 0.9866576 0
vt 0.67312210000000008 0.9866573 0
vt 0.7335628 0.8674669 0
vt 0.7335628 0.9756612 0
# 112 texture coords

g map_ob000_item_21_goalkey
usemtl mat_map_ob000_item
s 1
f 1/1/1 3/3/3 2/2/2
f 1/1/1 4/4/4 3/3/3
f 5/5/5 1/1/1 2/2/2
f 5/5/5 2/2/2 6/6/6
f 7/7/7 5/5/5 6/6/6
f 7/7/7 6/6/6 8/8/8
f 9/9/9 7/7/7 8/8/8
f 9/9/9 8/8/8 10/10/10
f 11/11/11 9/9/9 10/10/10
f 11/11/11 10/10/10 12/12/12
f 13/13/13 11/11/11 12/12/12
f 13/13/13 12/12/12 14/14/14
f 15/15/15 13/13/13 14/14/14
f 15/15/15 14/14/14 16/16/16
f 4/4/4 16/16/16 3/3/3
f 4/4/4 15/15/15 16/16/16
f 2/2/2 3/3/3 17/17/17
f 2/2/2 17/17/17 18/18/18
f 6/6/6 18/18/18 19/19/19
f 8/8/8 6/6/6 19/19/19
f 6/6/6 2/2/2 18/18/18
f 8/8/8 19/19/19 20/20/20
f 10/10/10 8/8/8 20/20/20
f 10/10/10 20/20/20 21/21/21
f 12/12/12 10/10/10 21/21/21
f 12/12/12 21/21/21 22/22/22
f 14/14/14 12/12/12 22/22/22
f 14/14/14 22/22/22 23/23/23
f 16/16/16 14/14/14 23/23/23
f 16/16/16 23/23/23 24/24/24
f 3/3/3 24/24/24 17/17/17
f 3/3/3 16/16/16 24/24/24
f 25/25/25 27/27/27 26/26/26
f 25/25/25 28/28/28 27/27/27
f 29/29/29 25/25/25 26/26/26
f 29/29/29 26/26/26 30/30/30
f 31/31/31 29/29/29 30/30/30
f 31/31/31 30/30/30 32/32/32
f 33/33/33 31/31/31 32/32/32
f 33/33/33 32/32/32 34/34/34
f 35/35/35 33/33/33 34/34/34
f 35/35/35 34/34/34 36/36/36
f 37/37/37 35/35/35 36/36/36
f 37/37/37 36/36/36 38/38/38
f 39/39/39 37/37/37 38/38/38
f 39/39/39 38/38/38 40/40/40
f 28/28/28 40/40/40 27/27/27
f 28/28/28 39/39/39 40/40/40
f 26/26/26 27/27/27 41/41/41
f 26/26/26 41/41/41 42/42/42
f 30/30/30 42/42/42 43/43/43
f 32/32/32 30/30/30 43/43/43
f 30/30/30 26/26/26 42/42/42
f 32/32/32 43/43/43 44/44/44
f 34/34/34 32/32/32 44/44/44
f 34/34/34 44/44/44 45/45/45
f 36/36/36 34/34/34 45/45/45
f 36/36/36 45/45/45 46/46/46
f 38/38/38 36/36/36 46/46/46
f 38/38/38 46/46/46 47/47/47
f 40/40/40 38/38/38 47/47/47
f 40/40/40 47/47/47 48/48/48
f 27/27/27 48/48/48 41/41/41
f 27/27/27 40/40/40 48/48/48
f 49/49/49 51/51/51 50/50/50
f 49/49/49 52/52/52 51/51/51
f 52/52/52 53/53/53 51/51/51
f 52/52/52 54/54/54 53/53/53
f 55/55/55 52/52/52 49/49/49
f 55/55/55 56/56/56 52/52/52
f 56/56/56 54/54/54 52/52/52
f 56/56/56 57/57/57 54/54/54
f 58/58/58 56/56/56 55/55/55
f 58/58/58 59/59/59 56/56/56
f 59/59/59 57/57/57 56/56/56
f 59/59/59 60/60/60 57/57/57
f 50/50/50 51/51/51 61/61/61
f 50/50/50 61/61/61 62/62/62
f 62/62/62 61/61/61 63/63/63
f 62/62/62 63/63/63 64/64/64
f 61/61/61 65/65/65 63/63/63
f 64/64/64 63/63/63 65/65/65
f 61/61/61 66/66/66 65/65/65
f 51/51/51 66/66/66 61/61/61
f 51/51/51 53/53/53 66/66/66
f 67/67/67 69/69/69 68/68/68
f 68/68/68 69/69/69 70/70/70
f 68/68/68 70/70/70 71/71/71
f 71/71/71 67/67/67 68/68/68
f 71/71/71 72/72/72 67/67/67
f 73/73/73 72/72/72 71/71/71
f 73/73/73 74/74/74 72/72/72
f 75/75/75 74/74/74 73/73/73
f 75/75/75 76/76/76 74/74/74
f 73/73/73 77/77/77 75/75/75
f 73/73/73 78/78/78 77/77/77
f 71/71/71 78/78/78 73/73/73
f 71/71/71 70/70/70 78/78/78
f 75/75/75 77/77/77 79/79/79
f 75/75/75 79/79/79 80/80/80
f 80/80/80 76/76/76 75/75/75
f 80/80/80 81/81/81 76/76/76
f 80/80/80 79/79/79 82/82/82
f 80/80/80 82/82/82 83/83/83
f 83/83/83 81/81/81 80/80/80
f 83/83/83 84/84/84 81/81/81
f 85/85/85 87/87/87 86/86/86
f 85/85/85 88/88/88 87/87/87
f 89/89/89 91/91/91 90/90/90
f 89/89/89 92/92/92 91/91/91
f 92/92/92 93/93/93 91/91/91
f 92/92/92 94/94/94 93/93/93
f 89/89/89 94/94/94 92/92/92
f 95/95/95 97/97/97 96/96/96
f 95/95/95 98/98/98 97/97/97
f 96/96/96 97/97/97 99/99/99
f 96/96/96 100/100/100 95/95/95
f 96/96/96 99/99/99 100/100/100
f 101/101/101 103/103/103 102/102/102
f 101/101/101 104/104/104 103/103/103
f 105/105/105 103/103/103 104/104/104
f 105/105/105 106/106/106 103/103/103
f 107/107/107 103/103/103 106/106/106
f 107/107/107 106/106/106 108/108/108
f 109/109/109 106/106/106 105/105/105
f 109/109/109 105/105/105 110/110/110
f 108/108/108 111/111/111 107/107/107
f 108/108/108 112/112/112 111/111/111
#128 polygons

